<?xml version="1.0" encoding="UTF-8" standalone="no"?>
<svg
   xmlns:dc="http://purl.org/dc/elements/1.1/"
   xmlns:cc="http://creativecommons.org/ns#"
   xmlns:rdf="http://www.w3.org/1999/02/22-rdf-syntax-ns#"
   xmlns:svg="http://www.w3.org/2000/svg"
   xmlns="http://www.w3.org/2000/svg"
   xmlns:xlink="http://www.w3.org/1999/xlink"
   xmlns:sodipodi="http://sodipodi.sourceforge.net/DTD/sodipodi-0.dtd"
   xmlns:inkscape="http://www.inkscape.org/namespaces/inkscape"
   width="400mm"
   height="300mm"
   viewBox="0 0 1417.3228 1062.9921"
   id="svg4163"
   version="1.1"
   inkscape:version="0.92.5 (2060ec1f9f, 2020-04-08)"
   sodipodi:docname="lastpage.svg">
  <defs
     id="defs4165">
    <clipPath
       id="clipPath26"
       clipPathUnits="userSpaceOnUse">
      <path
         inkscape:connector-curvature="0"
         id="path24"
         d="M 0,0 H 362.83502 V 272.409 H 0 Z" />
    </clipPath>
    <clipPath
       id="clipPath16105"
       clipPathUnits="userSpaceOnUse">
      <path
         inkscape:connector-curvature="0"
         id="path16103"
         d="M 44.519,0 H 159.145 V 56.285 H 44.519 Z" />
    </clipPath>
    <clipPath
       clipPathUnits="userSpaceOnUse"
       id="clipPath947">
      <path
         d="M 0,0 H 196.29178 V 53.695553 H 0 Z"
         id="path945"
         inkscape:connector-curvature="0" />
    </clipPath>
    <clipPath
       clipPathUnits="userSpaceOnUse"
       id="clipPath1011">
      <path
         d="M 0,0 H 362.83502 V 272.409 H 0 Z"
         id="path1009"
         inkscape:connector-curvature="0" />
    </clipPath>
    <clipPath
       clipPathUnits="userSpaceOnUse"
       id="clipPath1015">
      <path
         d="m 288,72.409 h 5 v -5 h -5 z"
         id="path1013"
         inkscape:connector-curvature="0" />
    </clipPath>
    <clipPath
       clipPathUnits="userSpaceOnUse"
       id="clipPath1019">
      <path
         d="m 292.914,70.362 c 0,-1.109 -0.902,-2.012 -2.012,-2.012 -1.109,0 -2.011,0.903 -2.011,2.012 0,1.109 0.902,2.012 2.011,2.012 1.11,0 2.012,-0.903 2.012,-2.012 z"
         id="path1017"
         inkscape:connector-curvature="0" />
    </clipPath>
    <clipPath
       clipPathUnits="userSpaceOnUse"
       id="clipPath1023">
      <path
         d="m 288,68 h 5 v 5 h -5 z"
         id="path1021"
         inkscape:connector-curvature="0" />
    </clipPath>
    <clipPath
       clipPathUnits="userSpaceOnUse"
       id="clipPath1027">
      <path
         d="m 292.914,70.953 c 0,-1.109 -0.902,-2.012 -2.012,-2.012 -1.109,0 -2.011,0.903 -2.011,2.012 0,1.109 0.902,2.012 2.011,2.012 1.11,0 2.012,-0.903 2.012,-2.012 z"
         id="path1025"
         inkscape:connector-curvature="0"
         style="clip-rule:evenodd" />
    </clipPath>
    <radialGradient
       fx="146.49426"
       fy="145.65688"
       cx="146.49426"
       cy="145.65688"
       r="1.95717"
       gradientUnits="userSpaceOnUse"
       gradientTransform="matrix(-0.595619,-1.027256,-1.149635,0.666576,545.11656,126.09202)"
       spreadMethod="pad"
       id="radialGradient1033">
      <stop
         style="stop-opacity:1;stop-color:#4e9a06"
         offset="0"
         id="stop1029" />
      <stop
         style="stop-opacity:1;stop-color:#73d216"
         offset="1"
         id="stop1031" />
    </radialGradient>
    <clipPath
       clipPathUnits="userSpaceOnUse"
       id="clipPath1037">
      <path
         d="m 298,80.409 h 5 v -5 h -5 z"
         id="path1035"
         inkscape:connector-curvature="0" />
    </clipPath>
    <clipPath
       clipPathUnits="userSpaceOnUse"
       id="clipPath1041">
      <path
         d="m 302.273,78.382 c 0,-1.11 -0.898,-2.008 -2.007,-2.008 -1.11,0 -2.012,0.898 -2.012,2.008 0,1.113 0.902,2.011 2.012,2.011 1.109,0 2.007,-0.898 2.007,-2.011 z"
         id="path1039"
         inkscape:connector-curvature="0" />
    </clipPath>
    <clipPath
       clipPathUnits="userSpaceOnUse"
       id="clipPath1045">
      <path
         d="m 298,76 h 5 v 5 h -5 z"
         id="path1043"
         inkscape:connector-curvature="0" />
    </clipPath>
    <clipPath
       clipPathUnits="userSpaceOnUse"
       id="clipPath1049">
      <path
         d="m 302.273,78.973 c 0,-1.11 -0.898,-2.008 -2.007,-2.008 -1.11,0 -2.012,0.898 -2.012,2.008 0,1.113 0.902,2.011 2.012,2.011 1.109,0 2.007,-0.898 2.007,-2.011 z"
         id="path1047"
         inkscape:connector-curvature="0"
         style="clip-rule:evenodd" />
    </clipPath>
    <radialGradient
       fx="146.49426"
       fy="145.65688"
       cx="146.49426"
       cy="145.65688"
       r="1.95717"
       gradientUnits="userSpaceOnUse"
       gradientTransform="matrix(-0.595619,-1.027256,-1.149635,0.666576,554.47948,134.11357)"
       spreadMethod="pad"
       id="radialGradient1055">
      <stop
         style="stop-opacity:1;stop-color:#a40000"
         offset="0"
         id="stop1051" />
      <stop
         style="stop-opacity:1;stop-color:#ef2929"
         offset="1"
         id="stop1053" />
    </radialGradient>
    <clipPath
       clipPathUnits="userSpaceOnUse"
       id="clipPath1059">
      <path
         d="m 245,105.409 h 26 v -24 h -26 z"
         id="path1057"
         inkscape:connector-curvature="0" />
    </clipPath>
    <clipPath
       clipPathUnits="userSpaceOnUse"
       id="clipPath1063">
      <path
         d="m 257.594,105.21 c -1.856,-0.071 -2.84,-0.793 -5.606,-1.617 -2.761,-0.821 -6.187,-3.887 -6.187,-8.446 0,-5.797 4.699,-11.527 10.496,-12.797 2.91,-0.636 4.711,-0.027 7.789,1.039 3.082,1.067 6.633,4.231 6.633,8.786 0,5.8 -4.699,11.531 -10.496,12.796 -0.907,0.2 -1.789,0.27 -2.629,0.239 z"
         id="path1061"
         inkscape:connector-curvature="0" />
    </clipPath>
    <clipPath
       clipPathUnits="userSpaceOnUse"
       id="clipPath1067">
      <path
         d="m 245,82 h 26 v 24 h -26 z"
         id="path1065"
         inkscape:connector-curvature="0" />
    </clipPath>
    <clipPath
       clipPathUnits="userSpaceOnUse"
       id="clipPath1071">
      <path
         d="m 257.594,105.801 c -1.856,-0.071 -2.84,-0.793 -5.606,-1.617 -2.761,-0.821 -6.187,-3.887 -6.187,-8.446 0,-5.797 4.699,-11.527 10.496,-12.797 2.91,-0.636 4.711,-0.027 7.789,1.039 3.082,1.067 6.633,4.231 6.633,8.786 0,5.8 -4.699,11.531 -10.496,12.796 -0.907,0.2 -1.789,0.27 -2.629,0.239 z"
         id="path1069"
         inkscape:connector-curvature="0" />
    </clipPath>
    <linearGradient
       x1="533.21429"
       y1="211.64789"
       x2="512.14282"
       y2="168.79076"
       gradientUnits="userSpaceOnUse"
       gradientTransform="matrix(0.477773,0,0,-0.477773,8.630011,185.20136)"
       spreadMethod="pad"
       id="linearGradient1077">
      <stop
         style="stop-opacity:1;stop-color:#83e028"
         offset="0"
         id="stop1073" />
      <stop
         style="stop-opacity:1;stop-color:#407110"
         offset="1"
         id="stop1075" />
    </linearGradient>
  </defs>
  <sodipodi:namedview
     id="base"
     pagecolor="#ffffff"
     bordercolor="#666666"
     borderopacity="1.0"
     inkscape:pageopacity="0.0"
     inkscape:pageshadow="2"
     inkscape:zoom="0.7"
     inkscape:cx="1196.8356"
     inkscape:cy="736.94203"
     inkscape:document-units="px"
     inkscape:current-layer="layer1"
     showgrid="false"
     inkscape:snap-page="true"
     inkscape:window-width="2560"
     inkscape:window-height="1043"
     inkscape:window-x="1920"
     inkscape:window-y="0"
     inkscape:window-maximized="1"
     inkscape:document-rotation="0"
     inkscape:snap-global="true" />
  <metadata
     id="metadata4168">
    <rdf:RDF>
      <cc:Work
         rdf:about="">
        <dc:format>image/svg+xml</dc:format>
        <dc:type
           rdf:resource="http://purl.org/dc/dcmitype/StillImage" />
        <dc:title></dc:title>
      </cc:Work>
    </rdf:RDF>
  </metadata>
  <g
     inkscape:label="Layer 1"
     inkscape:groupmode="layer"
     id="layer1"
     transform="translate(0,10.629921)">
    <rect
       style="opacity:0.98000004;fill:#000000;fill-opacity:1;stroke:none;stroke-width:4.89266014;stroke-miterlimit:4;stroke-dasharray:none;stroke-opacity:1"
       id="rect836"
       width="1417.3229"
       height="1064.1094"
       x="-6.1194667e-05"
       y="-10.629921"
       rx="1.0354135"
       ry="0" />
    <image
       sodipodi:absref="/home/severinlemaignan/presentations/presentation-codesign-plymouth/style/image1.png"
       xlink:href="image1.png"
       transform="scale(-1,1)"
       width="827.56531"
       height="1198.4741"
       preserveAspectRatio="none"
       id="image833"
       x="-814.19366"
       y="-144.99464" />
    <g
       transform="matrix(1.2499999,0,0,-1.2499999,-876.49582,939.52865)"
       inkscape:label="presentation"
       id="g10">
      <g
         inkscape:label="Layer 1"
         id="layer1-3"
         transform="matrix(1.230705,0,0,-1.230705,1569.6485,142.66646)">
        <g
           id="g944"
           transform="matrix(0.94042877,0,0,0.94042877,11.102736,94.669364)">
          <g
             style="fill:#333333;fill-opacity:1"
             transform="matrix(1.1355081,0,0,1.1355081,-94.707982,-135.40251)"
             id="g924">
            <path
               style="fill:#b3b3b3;fill-opacity:1;stroke-width:0.26458332"
               d="m 226.93815,119.95396 c 2.7726,1.77787 6.53404,5.67566 7.86867,8.15392 l 0.4643,0.86215 -1.64558,2.30057 c -0.90507,1.26532 -1.76363,2.30057 -1.90791,2.30057 -0.14428,0 -0.87429,-0.53532 -1.62224,-1.18961 -4.00541,-3.50384 -9.08223,-4.68157 -13.61769,-3.15906 -9.62437,3.23079 -16.19974,16.45517 -15.58086,31.33618 0.40041,9.62778 3.72787,18.36118 8.99704,23.61401 3.98454,3.97219 8.35009,5.45001 13.60468,4.60543 1.68437,-0.27073 1.90043,0.16614 0.39688,0.80247 -2.62385,1.11044 -6.33549,1.57327 -9.11132,1.13616 v 2e-5 c -10.54009,-1.65977 -19.21786,-13.86357 -21.26073,-29.89956 -0.63083,-4.95179 -0.41463,-12.51382 0.4915,-17.19184 0.74673,-3.85509 2.37217,-8.89582 3.76433,-11.67376 2.88625,-5.75927 7.17294,-10.59039 11.23341,-12.66011 3.16555,-2.22061 12.49211,-3.44803 17.92552,0.66246 z"
               id="path864"
               inkscape:connector-curvature="0" />
            <path
               style="fill:#f9f9f9;fill-opacity:1;stroke-width:0.26458332"
               d="m 219.72825,169.19931 c -1.7527,-0.57896 -2.60321,-1.12269 -3.86328,-2.46981 -3.22129,-3.44382 -4.68092,-8.26814 -4.38864,-14.50518 0.14214,-3.03317 0.91251,-6.77576 1.52219,-7.3951 0.31764,-0.32267 0.33394,-0.11171 0.25647,3.31985 -0.0971,4.30066 0.72082,7.22343 2.68991,9.61228 0.89006,1.07979 3.07749,2.26132 4.19442,2.2656 0.37161,0.001 1.29601,-0.30656 2.05423,-0.68439 4.52427,-2.25454 6.23289,-10.96046 3.31903,-16.91135 -0.82723,-1.68942 -2.77746,-3.59987 -4.11019,-4.02635 -0.83679,-0.44344 -1.24059,-0.43556 -1.54658,-0.59735 0.82085,-0.33998 2.37148,-0.3335 4.16004,0.30464 3.08255,1.15333 5.66974,4.72267 6.99215,9.6465 0.79853,2.97325 0.79643,8.61143 -0.004,11.59408 -1.90063,7.0795 -6.77252,11.33402 -11.27543,9.84659 z"
               id="path862"
               inkscape:connector-curvature="0" />
            <path
               style="fill:#b3b3b3;fill-opacity:1;stroke-width:0.26458332"
               d="m 240.37047,169.03301 c -0.10301,-0.16668 -0.0619,-1.27838 0.0913,-2.47045 1.3168,-10.24609 -0.63021,-20.36384 -5.22476,-27.15076 -0.89696,-1.32496 -0.91929,-1.2301 0.89546,-3.80407 0.58208,-0.82561 1.25558,-1.50251 1.49666,-1.50423 0.52219,-0.004 1.63901,2.55415 2.8289,6.47916 2.47069,8.14986 2.83229,16.92089 1.05807,25.66458 -0.54548,2.68822 -0.80933,3.32983 -1.14558,2.78577 z"
               id="path860"
               inkscape:connector-curvature="0" />
            <path
               style="fill:#333333;fill-opacity:1;stroke-width:0.26458332"
               d="m 254.27726,148.76269 c 0.0127,-0.30822 0.0754,-0.37092 0.15985,-0.15985 0.0764,0.19099 0.067,0.4192 -0.0209,0.50712 -0.0879,0.0879 -0.15045,-0.0683 -0.13897,-0.34727 z"
               id="path858"
               inkscape:connector-curvature="0" />
          </g>
          <g
             transform="translate(17.172224,-75.144761)"
             id="g826">
            <path
               sodipodi:nodetypes="ccsssssscccccccsssscccscccssccssccccsccssccccscsscccscccc"
               inkscape:connector-curvature="0"
               id="path832"
               d="M -48.758919,99.87404 V 73.257093 l 10.517187,0.09749 c 10.125356,0.09386 10.586189,0.120179 12.369271,0.706418 2.778058,0.913365 5.139663,2.249637 6.714162,3.799086 2.776598,2.732428 4.001074,5.728178 4.190124,10.251378 0.349369,8.359053 -3.200159,13.645085 -10.639703,15.844865 -2.672861,0.79033 -5.695828,1.08847 -11.036411,1.08847 h -4.700294 l -0.06915,10.64948 -0.06915,10.64948 -3.638021,0.0736 -3.638021,0.0736 z m 17.710401,-0.267444 c 3.637809,-0.827402 5.900603,-2.867059 6.926027,-6.243045 0.477524,-1.572142 0.544378,-2.309027 0.436482,-4.811057 -0.210358,-4.878075 -1.685094,-7.543985 -5.06572,-9.157409 -2.163595,-1.032589 -4.526307,-1.372797 -8.89469,-1.280752 l -3.571875,0.07526 -0.06908,10.914063 -0.06908,10.914064 h 4.250184 c 2.891494,0 4.828024,-0.131429 6.057754,-0.411125 z M -6.0905338,126.1761 c -0.3378755,-0.33787 -0.5103071,0.16846 5.0789257,-14.91359 4.149426,-11.19685 3.6176929,-9.76072 9.0126105,-24.341666 C 13.342003,72.485625 13.08431,73.11079 13.76926,72.927073 c 0.770298,-0.206608 5.579301,-0.204316 6.119342,0.0029 0.617241,0.236858 0.726008,0.488354 5.306922,12.271062 2.291329,5.893594 5.049811,12.977812 6.129965,15.742705 9.226346,23.61694 9.620408,24.66642 9.439171,25.13872 -0.123198,0.32105 -0.791831,0.39283 -3.62845,0.38952 -1.912581,-0.002 -3.616529,-0.0925 -3.786545,-0.2007 -0.170019,-0.10816 -0.72803,-1.32672 -1.240025,-2.70793 C 30.17998,118.35775 22.042911,96.047426 20.916537,92.873969 18.765617,86.813955 16.2459,80.044272 16.061658,79.830442 c -0.100105,-0.11618 -0.452909,0.538664 -0.784011,1.455208 -0.331099,0.916545 -2.185315,6.012225 -4.120475,11.323736 -1.9351625,5.31151 -4.9622128,13.645884 -6.7267772,18.520834 -4.91047611,13.56612 -5.33132236,14.65966 -5.7785185,15.0151 -0.5293201,0.42072 -4.3278186,0.44538 -4.7424101,0.0308 z M 61.09608,126.1586 c -0.242682,-0.24268 -0.3175,-6.5102 -0.3175,-26.597171 V 73.281705 l 0.678682,-0.258034 c 0.88028,-0.334681 5.964439,-0.334681 6.844718,0 l 0.678683,0.258034 V 97.100754 120.9198 h 10.309442 c 9.921851,0 10.319736,0.0192 10.583333,0.51177 0.383484,0.71655 0.350118,4.33326 -0.04361,4.72698 -0.457951,0.45795 -28.275798,0.45795 -28.733749,0 z"
               style="fill:#ff9b2e;fill-opacity:1;stroke-width:0.26458332" />
            <path
               sodipodi:nodetypes="cccsccsccccccsccccscccscsccsccsscsscscccsccccscccscssccccccccsccscscccccscsccsccccsscccccssccccccccccsccscccccsccscccccscccccccccccccccccccccccccccccccc"
               inkscape:connector-curvature="0"
               id="path828"
               d="m 15.949276,156.30854 c -1.674101,-0.21454 -3.740227,-1.1558 -4.628169,-2.10843 -0.319013,-0.34225 -0.914326,-1.33631 -1.3229156,-2.209 -0.6946665,-1.48372 -0.7428921,-1.81001 -0.7428921,-5.0263 0,-4.08269 0.4430659,-5.70557 2.0267577,-7.42367 1.616695,-1.75391 3.260125,-2.35167 6.439908,-2.34238 3.229571,0.009 4.537493,0.51168 6.173955,2.3708 1.675659,1.90365 2.25884,4.08408 2.107668,7.88026 -0.124566,3.12816 -0.57648,4.64099 -1.907744,6.38637 -1.421736,1.86399 -4.827783,2.89767 -8.146568,2.47235 z m 3.695805,-2.21261 c 2.076308,-0.86754 3.101872,-2.48998 3.553937,-5.62231 0.362241,-2.50997 -0.152313,-5.50067 -1.225381,-7.12219 -1.803075,-2.72463 -5.793769,-3.16328 -8.070009,-0.88704 -2.587511,2.58751 -2.669677,9.63017 -0.144959,12.42474 1.401164,1.55092 3.857545,2.05451 5.886412,1.2068 z m -47.394389,1.84411 c -1.693828,-0.5391 -3.622857,-2.45379 -4.253648,-4.22204 -0.624135,-1.7496 -0.85485,-6.32103 -0.418213,-8.28659 0.64196,-2.88983 1.807255,-4.42008 4.237927,-5.56517 1.251702,-0.58968 1.806719,-0.68465 3.96875,-0.67908 2.057886,0.005 2.767158,0.1194 3.912573,0.62945 1.729095,0.76995 3.302992,2.50189 3.944501,4.34058 0.575908,1.65066 0.661406,7.08056 0.138869,8.81938 -0.540991,1.80024 -1.90165,3.51814 -3.503181,4.42295 -1.314204,0.74248 -1.688065,0.82315 -4.093998,0.88343 -1.821637,0.0456 -3.048908,-0.0613 -3.93358,-0.34291 z m 5.814489,-1.94079 c 1.134349,-0.51513 2.244535,-1.74303 2.729717,-3.01916 0.969987,-2.55125 0.856266,-6.74771 -0.241146,-8.89881 -2.284032,-4.47708 -8.55788,-3.94607 -9.903528,0.83821 -0.64213,2.28301 -0.753475,3.73791 -0.44046,5.75534 0.336183,2.16676 0.946088,3.51589 2.073385,4.5864 1.364743,1.29601 3.853729,1.6137 5.782032,0.73802 z m 88.050851,1.83858 c -2.657433,-0.57004 -4.676476,-2.06691 -5.878693,-4.35832 -0.646533,-1.23229 -0.703225,-1.59465 -0.707048,-4.51937 -0.004,-3.06052 0.02826,-3.24556 0.861171,-4.9383 0.475932,-0.96725 1.303938,-2.14374 1.84001,-2.61441 2.200841,-1.93237 5.606529,-2.75009 8.82033,-2.11782 2.499127,0.49168 2.894121,0.73884 2.894121,1.81101 0,0.81717 -0.06331,0.89817 -0.595312,0.76162 -0.327422,-0.084 -1.357286,-0.35688 -2.288585,-0.60632 -2.019509,-0.5409 -3.856046,-0.27373 -5.750674,0.8366 -3.675729,2.15412 -4.390546,9.07464 -1.260607,12.20457 1.155877,1.15588 3.07241,1.94376 4.728236,1.94376 1.010026,0 3.883808,-0.72869 4.227671,-1.07198 0.581258,-0.5803 0.971542,-0.25491 0.889098,0.74125 -0.06955,0.84033 -0.226859,1.06299 -1.027829,1.45479 -1.111168,0.54355 -5.115211,0.824 -6.751889,0.47292 z m 15.635099,0.10006 c -2.908284,-0.69662 -2.778125,-0.6093 -2.778125,-1.86372 0,-0.63593 0.08147,-1.15624 0.181049,-1.15624 0.09958,0 0.724654,0.26375 1.389063,0.5861 1.42953,0.69358 3.804176,0.79888 4.893389,0.21701 1.473655,-0.78726 1.927455,-2.90323 0.878687,-4.09712 -0.327422,-0.37273 -1.72216,-1.4807 -3.099417,-2.46215 -2.716199,-1.93561 -3.554798,-2.92481 -3.799599,-4.48195 -0.337045,-2.14391 0.504923,-3.96141 2.272676,-4.90588 0.934696,-0.49939 1.515671,-0.59612 3.501861,-0.58304 3.072481,0.0202 3.936957,0.39841 4.050868,1.77214 0.04656,0.56149 -0.03696,0.99031 -0.192884,0.99031 -0.151249,0 -1.044617,-0.25265 -1.985266,-0.56144 -1.988683,-0.65284 -3.210026,-0.53593 -4.313058,0.41286 -0.56584,0.48671 -0.722635,0.85407 -0.722635,1.69308 0,1.34037 0.508103,1.90719 3.620603,4.03898 2.991879,2.04918 3.567536,2.68851 3.896871,4.32793 0.706334,3.51611 -1.392889,5.86029 -5.458471,6.09541 -0.993545,0.0575 -2.04457,0.0474 -2.335612,-0.0223 z m -130.571873,-9.36996 v -9.26042 h 3.383521 c 2.986087,0 3.520829,0.0699 4.552486,0.59532 1.645566,0.83802 2.462254,2.42244 2.320294,4.50147 -0.155193,2.27284 -1.427119,3.72718 -3.585792,4.10006 l -1.133901,0.19586 2.729468,3.70417 c 1.501207,2.03729 3.002015,4.09112 3.335129,4.56406 l 0.605661,0.8599 -1.671662,-0.007 -1.671662,-0.007 -2.977328,-4.49096 c -3.985191,-6.01121 -4.034131,-6.01113 -4.034131,0.007 v 4.49792 h -0.926041 -0.926042 z m 6.642123,-2.06123 c 0.639494,-0.71571 0.76621,-1.08777 0.76621,-2.2497 0,-2.3414 -1.242358,-3.36199 -4.092543,-3.36199 h -1.463707 v 3.33621 3.33622 l 2.011915,-0.1016 c 1.877505,-0.0948 2.063104,-0.15889 2.778125,-0.95914 z m 33.5745435,2.08448 v -9.28367 l 3.5057291,0.0116 c 4.5773578,0.0152 5.98060724,0.5041 6.9770704,2.43105 0.491736,0.95091 0.5270288,3.1006 0.066675,4.06109 -0.2011733,0.41974 -0.7475167,1.00334 -1.21409618,1.29689 -0.46657947,0.29355 -0.85291347,0.61241 -0.85851999,0.70857 -0.005609,0.0962 0.50367141,0.42359 1.13172607,0.72762 1.5386235,0.74484 2.2976655,2.10742 2.2976655,4.12462 0,1.97671 -0.7722473,3.38114 -2.37840573,4.32543 -1.13161761,0.66529 -1.4094354,0.70629 -5.36065667,0.79105 l -4.1671875,0.0894 z m 7.1226653,7.23036 c 1.71727015,-0.68712 2.4519255,-2.45843 1.88809573,-4.55234 -0.46928616,-1.7428 -1.48693983,-2.29436 -4.24336623,-2.29988 l -2.2538531,-0.005 -0.074702,3.29261 c -0.041087,1.81094 -0.015055,3.44805 0.057841,3.63802 0.1907513,0.49709 3.3240371,0.44703 4.6259855,-0.0739 z m -0.508082,-8.91324 c 1.71463753,-0.85262 1.98843895,-3.68889 0.4943528,-5.12091 -0.7229925,-0.69296 -0.9609217,-0.76008 -2.6942098,-0.76008 h -1.9011846 l -0.074544,3.10885 -0.074541,3.10885 1.7943327,-0.004 c 0.9868852,-0.002 2.0919916,-0.15191 2.4557937,-0.33281 z m 37.8354162,2.58567 V 139.1596 H 33.20009 30.554257 v -0.92604 -0.92605 h 6.746875 6.746875 v 0.92605 0.92604 h -2.778125 -2.778125 v 8.33437 8.33438 H 37.16884 35.845924 Z m 13.963411,-0.92592 0.07279,-9.26054 h 1.183984 1.183984 v 9.26042 9.26042 l -1.256771,1.1e-4 -1.256771,1.2e-4 z"
               style="fill:#b3b3b3;fill-opacity:1;stroke-width:0.26458332" />
          </g>
        </g>
      </g>
    </g>
  </g>
</svg>
