<?xml version="1.0" encoding="UTF-8" standalone="no"?>
<!-- Generator: Adobe Illustrator 26.1.0, SVG Export Plug-In . SVG Version: 6.00 Build 0)  -->

<svg
   xmlns:dc="http://purl.org/dc/elements/1.1/"
   xmlns:cc="http://creativecommons.org/ns#"
   xmlns:rdf="http://www.w3.org/1999/02/22-rdf-syntax-ns#"
   xmlns:svg="http://www.w3.org/2000/svg"
   xmlns="http://www.w3.org/2000/svg"
   xmlns:sodipodi="http://sodipodi.sourceforge.net/DTD/sodipodi-0.dtd"
   xmlns:inkscape="http://www.inkscape.org/namespaces/inkscape"
   version="1.1"
   id="Layer_1"
   x="0px"
   y="0px"
   viewBox="0 0 595.3 265.7"
   style="enable-background:new 0 0 595.3 265.7;"
   xml:space="preserve"
   sodipodi:docname="logo_bw.svg"
   inkscape:version="0.92.5 (2060ec1f9f, 2020-04-08)"><metadata
   id="metadata41"><rdf:RDF><cc:Work
       rdf:about=""><dc:format>image/svg+xml</dc:format><dc:type
         rdf:resource="http://purl.org/dc/dcmitype/StillImage" /><dc:title></dc:title></cc:Work></rdf:RDF></metadata><defs
   id="defs39" /><sodipodi:namedview
   pagecolor="#ffffff"
   bordercolor="#666666"
   borderopacity="1"
   objecttolerance="10"
   gridtolerance="10"
   guidetolerance="10"
   inkscape:pageopacity="0"
   inkscape:pageshadow="2"
   inkscape:window-width="798"
   inkscape:window-height="480"
   id="namedview37"
   showgrid="false"
   inkscape:zoom="0.61985555"
   inkscape:cx="100.0233"
   inkscape:cy="132.85001"
   inkscape:window-x="0"
   inkscape:window-y="27"
   inkscape:window-maximized="0"
   inkscape:current-layer="Layer_1" />
<style
   type="text/css"
   id="style2">
	.st0{fill:#FFFFFF;}
</style>
<g
   id="g34">
	<path
   class="st0"
   d="M58,110.2c0,2,0,3.6,0,5.1c0,11.6,0,23.3,0,34.9c0,3.6-0.1,3.8-3.7,3.8c-3,0-5.9,0-8.9,0c-4.6,0-4.6,0-4.6-4.4   c0-24.8,0-49.7,0-74.5c0-9.2,0-18.5,0-27.7c0-3.6,0-3.6,3.7-3.6c11.6,0,23.3-0.6,34.9,0.2c13.2,0.9,24.5,6.2,29.8,19.3   c4.8,11.9,3.7,28.9-8.2,39.3c-4.2,3.7-9.5,5.6-15,6.5c-4.5,0.7-9.1,1-13.7,1.2C67.7,110.3,63,110.2,58,110.2z M58.1,99.5   c7-0.5,13.9-0.6,20.7-1.6c7.5-1.2,12.4-5.9,13.7-13.5c0.7-4,0.8-8.2,0.5-12.3c-0.7-7.6-4.6-13-11.9-15.7c-7.5-2.8-15.2-1.2-23-1.7   C58.1,69.7,58.1,84.2,58.1,99.5z"
   id="path4" />
	<path
   class="st0"
   d="M174.9,54.3c-2.3,6.9-4.7,13.8-7,20.7c-8.5,25.4-17,50.8-25.5,76.2c-0.6,2-1.5,2.9-3.7,2.8   c-3.5-0.2-7,0-11.1,0c0.3-1.5,0.4-2.7,0.9-3.9c5.6-15.3,11.1-30.6,16.7-45.9c6.8-18.7,13.6-37.3,20.4-56c2.2-5.9,2.8-6.2,9.2-6   c2.9,0,5.7,0.3,8.6,0.3c2.6,0.1,4.1,1.4,5,3.9c9.8,27.9,19.6,55.8,29.4,83.6c2.4,6.9,4.9,13.8,7.3,20.7c0.9,2.6,0.6,3.1-2.2,3.2   c-3.9,0.1-7.8-0.1-11.6,0.1c-2.1,0.1-2.9-0.8-3.5-2.6c-7.2-21.7-14.4-43.4-21.6-65.1c-3.6-10.7-7.1-21.4-10.7-32   C175.3,54.3,175.1,54.3,174.9,54.3z"
   id="path6" />
	<path
   class="st0"
   d="M474.6,234.3c-56.9,1.4-107.8-49.1-105.1-110.9c2.3-52.9,46.5-101.6,105.7-101.4   c57.9,0.2,105,49.1,104.6,107.2C579.4,186.1,532,235.4,474.6,234.3z M575.1,128.3c0.2-55.8-46.2-101.7-100.9-101.5   c-54.5,0.2-101.4,46.4-100.1,104c1.1,53.7,46.1,101.4,104.9,99.1C529.9,227.8,575.1,184.6,575.1,128.3z"
   id="path8" />
	<path
   class="st0"
   d="M283.1,142.3c9.7,0,19,0,28.3,0c3.6,0,7.2,0.1,10.8,0c2.5-0.1,3.9,0.7,3.6,3.5c-0.1,1.6-0.1,3.3,0,5   c0.2,2.4-0.7,3.2-3.1,3.2c-12.3-0.1-24.6,0-36.8,0c-5.5,0-11.1-0.1-16.6,0.1c-2.7,0.1-3.4-0.9-3.4-3.5c0.1-30.8,0-61.6,0-92.4   c0-4,0.1-7.9,0-11.9c0-1.9,0.7-2.6,2.6-2.5c3.7,0.1,7.4,0,11.1,0c3.4,0,3.5,0.2,3.5,3.6c0,22.1,0,44.3,0,66.4   C283.1,123.2,283.1,132.6,283.1,142.3z"
   id="path10" />
	<path
   class="st0"
   d="M177.1,227.1c-12.6,0.3-17.4-8.2-17.4-17.2c0-3.6-0.1-7.2,0.6-10.7c2-10.6,10.2-13.5,18.8-12.9   c14,0.9,16.6,13.1,15.9,23.1c-0.1,1.5-0.3,2.9-0.6,4.4C192.1,222.9,186.5,227.2,177.1,227.1z M188.8,206.2   c-0.5-2.6-0.7-5.5-1.6-8.1c-1.7-5.1-5.3-7.2-10.8-7.1c-4.8,0.1-8,2.7-9.6,7.6c-1.6,5.3-1.6,10.7-0.1,16c1.6,5.4,4.9,8,10.1,8.1   c5.5,0,9.1-2.5,10.6-8.1C188.2,211.9,188.4,209.1,188.8,206.2z"
   id="path12" />
	<path
   class="st0"
   d="M73.7,206.7c-0.2-5.8,0.5-11.5,4.9-15.8c5.7-5.4,12.6-5.6,19.6-3.5c6.5,1.9,9.3,7.2,10.5,13.6   c0.9,5.4,0.7,10.6-1.1,15.7c-2.3,6.7-7.4,10.2-14.6,10.4c-2.1,0-4.3,0.2-6.3-0.2c-9.6-2.1-12.1-8.7-12.9-16.2   C73.6,209.2,73.7,207.9,73.7,206.7z M102.9,206.2c-0.4-2.4-0.7-5.2-1.5-7.8c-1.8-5.4-5.1-7.6-10.8-7.5c-4.8,0.1-8.2,2.8-9.7,7.8   c-1.6,5.2-1.5,10.5,0,15.7c1.5,5.4,4.9,8.1,10,8.1c5.6,0,9.2-2.5,10.7-8C102.3,212,102.5,209.2,102.9,206.2z"
   id="path14" />
	<path
   class="st0"
   d="M122.9,225.9c0-7.7,0-15.1,0-22.4c0-4.8,0.1-9.6,0-14.4c0-1.7,0.3-2.6,2.3-2.4c4.2,0.3,8.5,0.1,12.6,0.6   c5.1,0.6,7.4,3.2,8.3,8.1c0.6,3.6-1.2,6.9-5.2,9.2c0.2,0.2,0.4,0.4,0.5,0.4c6.2,2.2,7.2,6.5,6.8,10.9c-0.6,5.8-4.3,9.5-10,9.9   C133.3,226.2,128.3,225.9,122.9,225.9z M128.7,222.1c4.4-0.4,9.2,1.5,12.2-3.2c1.8-2.9,1.8-6.3-0.1-9.1c-3.1-4.3-7.8-2.3-12-2.7   C128.7,212.1,128.7,216.9,128.7,222.1z M128.6,203.2c3.8-0.2,7.8,1.1,10.2-2.7c1.4-2.3,1.4-5-0.2-7.3c-2.6-3.7-6.5-1.8-10-2.2   C128.6,195.1,128.6,199,128.6,203.2z"
   id="path16" />
	<path
   class="st0"
   d="M52.8,206.8c4.4,6.2,8.7,12.4,13,18.6c-4.7,1.4-6.7,0.8-9.2-3c-2.9-4.4-5.7-9-8.6-13.4   c-0.6-0.9-1.7-1.5-2.5-2.2c-0.2,0.2-0.5,0.3-0.7,0.5c0,6.1,0,12.3,0,18.2c-0.3,0.3-0.4,0.4-0.5,0.4c-5.5,0.6-5.5,0.6-5.5-4.9   c0-10.3,0.1-20.7-0.1-31c0-2.7,0.9-3.5,3.5-3.4c4.1,0.3,8.3,0,12.4,0.6c4.8,0.7,7.4,4.3,7.6,9.4c0.2,4.9-2.2,8.1-7,9.6   C54.5,206.3,53.7,206.5,52.8,206.8z M45,203.7c3.8,0,7.8,1,10.2-2.9c1.5-2.5,1.4-5.4-0.4-7.8c-2.6-3.4-6.3-1.7-9.8-2.1   C45,195.3,45,199.3,45,203.7z"
   id="path18" />
	<path
   class="st0"
   d="M292.9,193.2c-11.2-3.6-17.4-2.7-21.4,3.2c-3.8,5.5-3.7,16.2,0.3,21.1c4.1,5.1,11.4,5.7,20.5,1.9   c1.5,2.5,1.3,4.4-0.8,5.3c-7.4,3.1-19.9,2.5-25.5-5.1c-2.7-3.7-3.4-7.9-3.5-12.2c-0.1-7.1,1.7-13.6,8.1-17.7   c6.5-4.2,13.5-4.2,20.6-1.7C293.8,188.8,293.1,190.9,292.9,193.2z"
   id="path20" />
	<path
   class="st0"
   d="M324.1,192.6c-3.2-0.6-6.3-1.2-9.4-1.6c-2.2-0.2-4,0.8-4.7,3c-0.7,2.2-0.4,4.4,1.7,6c2.7,1.9,5.4,3.8,8.2,5.6   c5.8,3.9,6.4,7.2,5.2,13c-0.9,4.7-5.6,7.7-11.4,7.8c-2.5,0-5-0.3-7.4-0.8c-3.8-0.8-4.4-2.2-2.9-6.2c2.2,0.8,4.4,1.9,6.6,2.3   c1.8,0.3,3.9,0.2,5.6-0.4c4.2-1.4,4.9-7.3,1.2-10.1c-2.6-2-5.4-3.9-8.1-5.7c-3.9-2.6-5.6-6.1-5.1-10.9c0.4-4,3.8-7.5,8.2-8   c2.6-0.3,5.4-0.5,7.9,0.1C324.8,187.9,324.4,187.4,324.1,192.6z"
   id="path22" />
	<path
   class="st0"
   d="M231.4,191c-3.6,0-7,0-10.8,0c0,11.6,0,23.1,0,34.7c-2.1,0-3.9,0-6.1,0c0-11.4,0-22.9,0-34.6   c-3.8,0-7.3,0-10.7,0c-1.1-4.2-0.9-4.5,3.1-4.5c7,0,14,0,21.1,0C231.9,186.6,231.9,186.6,231.4,191z"
   id="path24" />
	<path
   class="st0"
   d="M248.7,225.8c-2,0-3.7,0-5.8,0c-0.1-0.9-0.1-1.8-0.1-2.6c0-11.2,0.1-22.3-0.1-33.5c0-2.5,0.7-3.1,3.1-3.1   c2.2,0,3.1,0.6,3,2.9c-0.1,11.3-0.1,22.5-0.1,33.8C248.8,224,248.7,224.7,248.7,225.8z"
   id="path26" />
	<path
   class="st0"
   d="M504,84c-5-4.9-10.4-8.8-17-10.4c-11.5-2.7-21.2,1-29.5,8.9c-9.1,8.6-14.1,19.7-17.1,31.6   c-5.5,21.8-4.5,43.3,4.7,64.1c3.6,8.2,8.7,15.4,15.9,20.9c7.6,5.7,16,8.1,25.4,5.9c0.2-0.1,0.5,0.1,0.8,0.1c0,0.2,0.1,0.5,0.2,0.7   c-3.7,0.8-7.4,2.1-11.1,2.4c-14.4,1.2-25.5-5.4-34.4-15.9c-10.2-11.9-15.6-25.9-18.5-41.2c-2.2-11.7-2.8-23.4-1.6-35.2   c2-18.2,7-35.4,18.8-50c6.4-8,14.2-14.3,24.5-16.6c11.6-2.6,22.2,0.2,31.6,7.5c5.4,4.2,9.7,9.3,13.4,15c1,1.5,1,2.5-0.1,3.9   C508,78.4,506.1,81.1,504,84z"
   id="path28" />
	<path
   class="st0"
   d="M464.1,109.6c-1.3,6.4-1.3,12.7,1,18.8c1.3,3.5,3.2,7.1,5.7,9.9c5,5.6,12.4,5,17.3-0.7   c3.6-4.2,5.4-9.2,6.1-14.5c1.1-8.2-0.4-15.9-4.6-23c-1.9-3.2-4.8-5.3-8.4-6.3c0.1-0.2,0.1-0.5,0.2-0.7c1.7,0.3,3.5,0.4,5.1,0.9   c4.3,1.4,7.4,4.3,9.9,8.2c6.4,9.7,7.9,20.3,6.8,31.4c-0.8,8.6-3.9,16.4-9.9,23.1c-6.5,7.3-16,6.7-21.6,1c-5-5.1-8.2-11.4-9.7-18.5   c-2.1-9.6-1.6-18.9,1.5-28.2C463.6,110.5,463.9,110.1,464.1,109.6z"
   id="path30" />
	<path
   class="st0"
   d="M523.5,159.8c0.3-4.8,0.8-9.6,1-14.4c0.6-14.3-1.9-28.1-8-41.1c-1.5-3.1-3.4-6.1-5-9.1   c-0.3-0.6-0.4-1.8-0.1-2.3c1.6-2.5,3.5-4.9,5.6-7.9C527.8,109.5,529.6,134.2,523.5,159.8z"
   id="path32" />
</g>
</svg>