<?xml version="1.0" encoding="UTF-8" standalone="no"?>
<svg
   xmlns:dc="http://purl.org/dc/elements/1.1/"
   xmlns:cc="http://creativecommons.org/ns#"
   xmlns:rdf="http://www.w3.org/1999/02/22-rdf-syntax-ns#"
   xmlns:svg="http://www.w3.org/2000/svg"
   xmlns="http://www.w3.org/2000/svg"
   xmlns:xlink="http://www.w3.org/1999/xlink"
   xmlns:sodipodi="http://sodipodi.sourceforge.net/DTD/sodipodi-0.dtd"
   xmlns:inkscape="http://www.inkscape.org/namespaces/inkscape"
   version="1.1"
   id="svg2"
   xml:space="preserve"
   width="811.50293"
   height="173.77744"
   viewBox="0 0 811.50292 173.77745"
   sodipodi:docname="logo.svg"
   inkscape:version="0.92.5 (2060ec1f9f, 2020-04-08)"><metadata
     id="metadata8"><rdf:RDF><cc:Work
         rdf:about=""><dc:format>image/svg+xml</dc:format><dc:type
           rdf:resource="http://purl.org/dc/dcmitype/StillImage" /><dc:title /></cc:Work></rdf:RDF></metadata><defs
     id="defs6"><clipPath
       clipPathUnits="userSpaceOnUse"
       id="clipPath26"><path
         d="M 0,0 H 362.83502 V 272.409 H 0 Z"
         id="path24"
         inkscape:connector-curvature="0" /></clipPath><clipPath
       clipPathUnits="userSpaceOnUse"
       id="clipPath16105"><path
         d="M 44.519,0 H 159.145 V 56.285 H 44.519 Z"
         id="path16103"
         inkscape:connector-curvature="0" /></clipPath><clipPath
       id="clipPath947"
       clipPathUnits="userSpaceOnUse"><path
         inkscape:connector-curvature="0"
         id="path945"
         d="M 0,0 H 196.29178 V 53.695553 H 0 Z" /></clipPath><clipPath
       id="clipPath1011"
       clipPathUnits="userSpaceOnUse"><path
         inkscape:connector-curvature="0"
         id="path1009"
         d="M 0,0 H 362.83502 V 272.409 H 0 Z" /></clipPath><clipPath
       id="clipPath1015"
       clipPathUnits="userSpaceOnUse"><path
         inkscape:connector-curvature="0"
         id="path1013"
         d="m 288,72.409 h 5 v -5 h -5 z" /></clipPath><clipPath
       id="clipPath1019"
       clipPathUnits="userSpaceOnUse"><path
         inkscape:connector-curvature="0"
         id="path1017"
         d="m 292.914,70.362 c 0,-1.109 -0.902,-2.012 -2.012,-2.012 -1.109,0 -2.011,0.903 -2.011,2.012 0,1.109 0.902,2.012 2.011,2.012 1.11,0 2.012,-0.903 2.012,-2.012 z" /></clipPath><clipPath
       id="clipPath1023"
       clipPathUnits="userSpaceOnUse"><path
         inkscape:connector-curvature="0"
         id="path1021"
         d="m 288,68 h 5 v 5 h -5 z" /></clipPath><clipPath
       id="clipPath1027"
       clipPathUnits="userSpaceOnUse"><path
         style="clip-rule:evenodd"
         inkscape:connector-curvature="0"
         id="path1025"
         d="m 292.914,70.953 c 0,-1.109 -0.902,-2.012 -2.012,-2.012 -1.109,0 -2.011,0.903 -2.011,2.012 0,1.109 0.902,2.012 2.011,2.012 1.11,0 2.012,-0.903 2.012,-2.012 z" /></clipPath><radialGradient
       id="radialGradient1033"
       spreadMethod="pad"
       gradientTransform="matrix(-0.595619,-1.027256,-1.149635,0.666576,545.11656,126.09202)"
       gradientUnits="userSpaceOnUse"
       r="1.95717"
       cy="145.65688"
       cx="146.49426"
       fy="145.65688"
       fx="146.49426"><stop
         id="stop1029"
         offset="0"
         style="stop-opacity:1;stop-color:#4e9a06" /><stop
         id="stop1031"
         offset="1"
         style="stop-opacity:1;stop-color:#73d216" /></radialGradient><clipPath
       id="clipPath1037"
       clipPathUnits="userSpaceOnUse"><path
         inkscape:connector-curvature="0"
         id="path1035"
         d="m 298,80.409 h 5 v -5 h -5 z" /></clipPath><clipPath
       id="clipPath1041"
       clipPathUnits="userSpaceOnUse"><path
         inkscape:connector-curvature="0"
         id="path1039"
         d="m 302.273,78.382 c 0,-1.11 -0.898,-2.008 -2.007,-2.008 -1.11,0 -2.012,0.898 -2.012,2.008 0,1.113 0.902,2.011 2.012,2.011 1.109,0 2.007,-0.898 2.007,-2.011 z" /></clipPath><clipPath
       id="clipPath1045"
       clipPathUnits="userSpaceOnUse"><path
         inkscape:connector-curvature="0"
         id="path1043"
         d="m 298,76 h 5 v 5 h -5 z" /></clipPath><clipPath
       id="clipPath1049"
       clipPathUnits="userSpaceOnUse"><path
         style="clip-rule:evenodd"
         inkscape:connector-curvature="0"
         id="path1047"
         d="m 302.273,78.973 c 0,-1.11 -0.898,-2.008 -2.007,-2.008 -1.11,0 -2.012,0.898 -2.012,2.008 0,1.113 0.902,2.011 2.012,2.011 1.109,0 2.007,-0.898 2.007,-2.011 z" /></clipPath><radialGradient
       id="radialGradient1055"
       spreadMethod="pad"
       gradientTransform="matrix(-0.595619,-1.027256,-1.149635,0.666576,554.47948,134.11357)"
       gradientUnits="userSpaceOnUse"
       r="1.95717"
       cy="145.65688"
       cx="146.49426"
       fy="145.65688"
       fx="146.49426"><stop
         id="stop1051"
         offset="0"
         style="stop-opacity:1;stop-color:#a40000" /><stop
         id="stop1053"
         offset="1"
         style="stop-opacity:1;stop-color:#ef2929" /></radialGradient><clipPath
       id="clipPath1059"
       clipPathUnits="userSpaceOnUse"><path
         inkscape:connector-curvature="0"
         id="path1057"
         d="m 245,105.409 h 26 v -24 h -26 z" /></clipPath><clipPath
       id="clipPath1063"
       clipPathUnits="userSpaceOnUse"><path
         inkscape:connector-curvature="0"
         id="path1061"
         d="m 257.594,105.21 c -1.856,-0.071 -2.84,-0.793 -5.606,-1.617 -2.761,-0.821 -6.187,-3.887 -6.187,-8.446 0,-5.797 4.699,-11.527 10.496,-12.797 2.91,-0.636 4.711,-0.027 7.789,1.039 3.082,1.067 6.633,4.231 6.633,8.786 0,5.8 -4.699,11.531 -10.496,12.796 -0.907,0.2 -1.789,0.27 -2.629,0.239 z" /></clipPath><clipPath
       id="clipPath1067"
       clipPathUnits="userSpaceOnUse"><path
         inkscape:connector-curvature="0"
         id="path1065"
         d="m 245,82 h 26 v 24 h -26 z" /></clipPath><clipPath
       id="clipPath1071"
       clipPathUnits="userSpaceOnUse"><path
         inkscape:connector-curvature="0"
         id="path1069"
         d="m 257.594,105.801 c -1.856,-0.071 -2.84,-0.793 -5.606,-1.617 -2.761,-0.821 -6.187,-3.887 -6.187,-8.446 0,-5.797 4.699,-11.527 10.496,-12.797 2.91,-0.636 4.711,-0.027 7.789,1.039 3.082,1.067 6.633,4.231 6.633,8.786 0,5.8 -4.699,11.531 -10.496,12.796 -0.907,0.2 -1.789,0.27 -2.629,0.239 z" /></clipPath><linearGradient
       id="linearGradient1077"
       spreadMethod="pad"
       gradientTransform="matrix(0.477773,0,0,-0.477773,8.630011,185.20136)"
       gradientUnits="userSpaceOnUse"
       y2="168.79076"
       x2="512.14282"
       y1="211.64789"
       x1="533.21429"><stop
         id="stop1073"
         offset="0"
         style="stop-opacity:1;stop-color:#83e028" /><stop
         id="stop1075"
         offset="1"
         style="stop-opacity:1;stop-color:#407110" /></linearGradient><style
       id="style866">.cls-1{fill:url(#linear-gradient);}.cls-2{fill:none;}.cls-3{clip-path:url(#clip-path);}.cls-4{clip-path:url(#clip-path-2);}.cls-5{fill:url(#radial-gradient);}.cls-6{clip-path:url(#clip-path-3);}.cls-7{fill:url(#linear-gradient-2);}.cls-8{clip-path:url(#clip-path-4);}.cls-9{fill:url(#linear-gradient-3);}.cls-10{fill:#fff;}.cls-11{clip-path:url(#clip-path-6);}.cls-12{mask:url(#mask);}.cls-13{fill:url(#linear-gradient-4);}.cls-14{clip-path:url(#clip-path-7);}.cls-15{fill:url(#linear-gradient-5);}.cls-16{clip-path:url(#clip-path-8);}.cls-17{fill:url(#linear-gradient-6);}.cls-18{clip-path:url(#clip-path-9);}.cls-19{fill:url(#linear-gradient-7);}.cls-20{fill:#010101;}</style><linearGradient
       gradientUnits="userSpaceOnUse"
       gradientTransform="matrix(1.65, -55.86, -52.53, -1.77, 27235.73, 1136.71)"
       y2="509.46"
       x2="3.61"
       y1="509.46"
       x1="1.2"
       id="linear-gradient"><stop
         id="stop868"
         offset="0" /><stop
         id="stop870"
         stop-color="#020202"
         offset="0.27" /><stop
         id="stop872"
         stop-color="#0a0a0a"
         offset="0.41" /><stop
         id="stop874"
         stop-color="#171717"
         offset="0.51" /><stop
         id="stop876"
         stop-color="#2a2a2a"
         offset="0.61" /><stop
         id="stop878"
         stop-color="#434343"
         offset="0.69" /><stop
         id="stop880"
         stop-color="#616161"
         offset="0.76" /><stop
         id="stop882"
         stop-color="#858585"
         offset="0.83" /><stop
         id="stop884"
         stop-color="#afafaf"
         offset="0.9" /><stop
         id="stop886"
         stop-color="#ddd"
         offset="0.96" /><stop
         id="stop888"
         stop-color="#fff"
         offset="1" /></linearGradient><clipPath
       id="clip-path"><rect
         id="rect891"
         height="1456.37"
         width="1435.15"
         y="-225.44"
         x="-409.86"
         class="cls-2" /></clipPath><clipPath
       id="clip-path-2"><path
         id="path894"
         d="M375.65,121.05A103.35,103.35,0,1,0,479,17.69,103.34,103.34,0,0,0,375.65,121.05"
         class="cls-2" /></clipPath><radialGradient
       gradientUnits="userSpaceOnUse"
       gradientTransform="matrix(42.87,0,0,-42.87,248.68,21979.82)"
       r="2.41"
       cy="509.92"
       cx="5.37"
       id="radial-gradient"><stop
         id="stop897"
         stop-color="#f29226"
         offset="0" /><stop
         id="stop899"
         stop-color="#010101"
         offset="1" /></radialGradient><clipPath
       id="clip-path-3"><path
         id="path902"
         d="M375.65,121.05A103.35,103.35,0,1,1,479,224.38,103.39,103.39,0,0,1,375.65,121.05m-4.46,0A107.81,107.81,0,1,0,479,13.24a107.91,107.91,0,0,0-107.8,107.81"
         class="cls-2" /></clipPath><linearGradient
       gradientUnits="userSpaceOnUse"
       gradientTransform="matrix(0, -89.43, -89.43, 0, 46118.15, 351.64)"
       y2="510.34"
       x2="3.78"
       y1="510.34"
       x1="1.37"
       id="linear-gradient-2"><stop
         id="stop905"
         stop-color="#ec7531"
         offset="0" /><stop
         id="stop907"
         stop-color="#f39b3b"
         offset="1" /></linearGradient><clipPath
       id="clip-path-4"><path
         id="path910"
         d="M424.35,121c0,45,23.83,81.46,53.19,81.46a36.69,36.69,0,0,0,15.75-3.62,29.63,29.63,0,0,1-8.85,1.36c-24.41,0-44.19-30.44-44.19-68s19.78-68,44.19-68c9.14,0,17.64,4.27,24.69,11.6l7.35-10.26c-9.69-16-23.55-26-38.94-26-29.36,0-53.19,36.48-53.19,81.47"
         class="cls-2" /></clipPath><linearGradient
       xlink:href="#linear-gradient-2"
       gradientTransform="matrix(0,-67.58,-67.58,0,34937.26,278.34)"
       y2="510.03"
       x2="3.53"
       y1="510.03"
       x1="1.12"
       id="linear-gradient-3" /><clipPath
       id="clip-path-6"><path
         id="path914"
         d="M478.81,31.48c-45,.12-81.38,30.39-81.3,67.57s36.59,67.25,81.64,67.12,81.46-30.32,81.32-67.55S524,31.48,479.05,31.48h-.24"
         class="cls-2" /></clipPath><mask
       maskUnits="userSpaceOnUse"
       height="145.83"
       width="171.13"
       y="25.97"
       x="393.46"
       id="mask"><polygon
         id="polygon917"
         points="393.45 166.17 397.59 25.98 564.59 31.61 560.44 171.81 393.45 166.17"
         class="cls-1" /></mask><linearGradient
       gradientUnits="userSpaceOnUse"
       gradientTransform="matrix(1.65,-55.86,-52.53,-1.77,27235.73,1136.71)"
       y2="509.46"
       x2="3.61"
       y1="509.46"
       x1="1.2"
       id="linear-gradient-4"><stop
         id="stop920"
         stop-color="#fff"
         offset="0" /><stop
         id="stop922"
         stop-color="#fff"
         offset="0.85" /><stop
         id="stop924"
         stop-color="#fff"
         offset="1" /></linearGradient><clipPath
       id="clip-path-7"><path
         id="path927"
         d="M50.79,45.81H64.47c15,0,23.27,8.11,23.27,22.83,0,15.73-7.81,23-24.58,23H50.79ZM35.68,35.23c-.9,0-2.24.5-2.24,1.58v109c0,1.07,1.34,1.58,2.24,1.58H48.55c.9,0,2.24-.51,2.24-1.58V102.29H66c26.67,0,40.18-11.4,40.18-33.87,0-20.78-14.12-33.19-37.78-33.19Z"
         class="cls-2" /></clipPath><linearGradient
       xlink:href="#linear-gradient-2"
       gradientTransform="matrix(0,-46.54,-46.54,0,24008.14,194.94)"
       y2="514.37"
       x2="3.43"
       y1="514.37"
       x1="1.02"
       id="linear-gradient-5" /><clipPath
       id="clip-path-8"><path
         id="path931"
         d="M161.07,41.24l-37.51,102.5-.77,2v.29c0,.5,0,1.36,2.67,1.36h9.38a2.47,2.47,0,0,0,2.11-1L171.48,44l34.33,102.55c.2.71,1.4.9,2.08.9h11.77c1.07,0,3.55-.16,3.55-1.58a3.51,3.51,0,0,0-.34-1,7.64,7.64,0,0,1-.44-1.15L186.23,41c-2.19-6-2.81-7.1-9.31-7.1-1.7,0-3.21,0-4.53-.07-1,0-1.95-.05-2.79-.05-4.58,0-5.89.3-8.53,7.44"
         class="cls-2" /></clipPath><linearGradient
       xlink:href="#linear-gradient-2"
       gradientTransform="matrix(0,-47.13,-47.13,0,24354.59,197.29)"
       y2="513.07"
       x2="3.47"
       y1="513.07"
       x1="1.06"
       id="linear-gradient-6" /><clipPath
       id="clip-path-9"><path
         id="path935"
         d="M266.87,35.23c-1.49,0-2.24.53-2.24,1.58v109c0,1.07,1.33,1.58,2.24,1.58h56.91c.9,0,2.24-.51,2.24-1.58v-8.52c0-1.05-.75-1.58-2.24-1.58H282V36.81c0-.39,0-1.58-2.24-1.58Z"
         class="cls-2" /></clipPath><linearGradient
       xlink:href="#linear-gradient-2"
       gradientTransform="matrix(0,-46.54,-46.54,0,24101.73,194.94)"
       y2="511.54"
       x2="3.43"
       y1="511.54"
       x1="1.02"
       id="linear-gradient-7" /><linearGradient
       inkscape:collect="always"
       xlink:href="#linear-gradient-2"
       id="linearGradient1075"
       gradientUnits="userSpaceOnUse"
       gradientTransform="matrix(0,-89.43,-89.43,0,46118.15,351.64)"
       x1="1.37"
       y1="510.34"
       x2="3.78"
       y2="510.34" /></defs><sodipodi:namedview
     pagecolor="#ffffff"
     bordercolor="#666666"
     borderopacity="1"
     objecttolerance="10"
     gridtolerance="10"
     guidetolerance="10"
     inkscape:pageopacity="0"
     inkscape:pageshadow="2"
     inkscape:window-width="1920"
     inkscape:window-height="1016"
     id="namedview4"
     showgrid="false"
     inkscape:zoom="1.8397052"
     inkscape:cx="346.67964"
     inkscape:cy="91.576435"
     inkscape:window-x="0"
     inkscape:window-y="27"
     inkscape:window-maximized="1"
     inkscape:current-layer="g10"
     fit-margin-top="0"
     fit-margin-left="0"
     fit-margin-right="0"
     fit-margin-bottom="0"
     inkscape:document-rotation="0"
     inkscape:snap-global="false" /><g
     id="g10"
     inkscape:groupmode="layer"
     inkscape:label="presentation"
     transform="matrix(1.3333333,0,0,-1.3333333,-46.309574,317.50571)"><g
       id="g995"
       clip-path="url(#clip-path)"
       class="cls-3"
       transform="matrix(0.41727985,0,0,-0.41727985,32.168499,240.8975)"><g
         id="g943"
         clip-path="url(#clip-path-2)"
         class="cls-4"><rect
           id="rect941"
           height="206.69"
           width="206.7"
           y="17.690001"
           x="375.64999"
           class="cls-5"
           style="fill:url(#radial-gradient)" /></g><g
         id="g947"
         clip-path="url(#clip-path-3)"
         class="cls-6"><rect
           id="rect945"
           height="215.60001"
           width="215.61"
           y="13.24"
           x="371.19"
           class="cls-7"
           style="fill:url(#linearGradient1075)" /></g><g
         id="g951"
         clip-path="url(#clip-path-4)"
         class="cls-8"><rect
           id="rect949"
           height="162.92999"
           width="92.129997"
           y="39.57"
           x="424.35001"
           class="cls-9"
           style="fill:url(#linear-gradient-3)" /></g><g
         id="g957"
         clip-path="url(#clip-path)"
         class="cls-3"><path
           id="path953"
           d="m 486.65,85.7 a 13.17,13.17 0 0 0 -1.68,0.11 c 8.21,1.16 14.62,11.79 14.6,24.74 0,13.72 -7.19,24.85 -16.09,24.85 -8.9,0 -16.14,-11.13 -16.14,-24.85 a 36.55,36.55 0 0 1 1.32,-9.8 49.63,49.63 0 0 0 -3.83,19.6 c 0,19.14 9.76,34.65 21.82,34.65 12.06,0 21.79,-15.51 21.79,-34.65 0,-19.14 -9.76,-34.65 -21.79,-34.65"
           class="cls-10"
           inkscape:connector-curvature="0"
           style="fill:#ffffff" /><path
           id="path955"
           d="m 516.09,86.2 c 8.87,12 14.45,29.64 14.45,49.27 a 96.81,96.81 0 0 1 -1.89,19.35 114.94,114.94 0 0 0 3.93,-30.19 c 0,-17.69 -3.8,-34 -10.22,-47.16 z"
           class="cls-10"
           inkscape:connector-curvature="0"
           style="fill:#ffffff" /></g><g
         id="g963"
         clip-path="url(#clip-path-6)"
         class="cls-11"><g
           id="g961"
           mask="url(#mask)"
           class="cls-12"><polygon
             id="polygon959"
             points="560.44,171.8 393.45,166.17 397.59,25.98 564.58,31.61 "
             class="cls-13"
             style="fill:url(#linear-gradient-4)" /></g></g><g
         id="g967"
         clip-path="url(#clip-path-7)"
         class="cls-14"><rect
           id="rect965"
           height="112.2"
           width="72.730003"
           y="35.23"
           x="33.439999"
           class="cls-15"
           style="fill:url(#linear-gradient-5)" /></g><g
         id="g971"
         clip-path="url(#clip-path-8)"
         class="cls-16"><rect
           id="rect969"
           height="113.63"
           width="100.43"
           y="33.799999"
           x="122.79"
           class="cls-17"
           style="fill:url(#linear-gradient-6)" /></g><g
         id="g975"
         clip-path="url(#clip-path-9)"
         class="cls-18"><rect
           id="rect973"
           height="112.2"
           width="61.389999"
           y="35.23"
           x="264.63"
           class="cls-19"
           style="fill:url(#linear-gradient-7)" /></g><g
         id="g993"
         clip-path="url(#clip-path)"
         class="cls-3"><path
           id="path977"
           d="m 52.78,220.11 c -0.41,0 -0.5,-0.13 -0.53,-0.17 L 40.06,201.8 a 1.67,1.67 0 0 0 -1.52,-0.77 h -1.1 v 18.48 c 0,0.4 -0.42,0.58 -0.73,0.58 h -4.23 c -0.3,0 -0.73,-0.18 -0.73,-0.58 v -38.26 c 0,-0.14 0,-0.58 0.73,-0.58 h 11.83 c 2.79,0 5.7,0.33 8,2.76 A 10.85,10.85 0 0 1 55.3,191 c 0,5.52 -3.65,9.3 -9.29,9.61 l -0.89,0.06 c 0,0 1.48,2 2.46,3.34 3.33,4.48 11.12,15 11.47,15.89 0,0.11 -0.56,0.23 -1,0.23 z m -15.34,-22 H 42 c 4.75,0 7.16,-2.3 7.16,-6.85 0,-4.34 -2.34,-6.83 -6.44,-6.83 h -5.3 z"
           class="cls-20"
           inkscape:connector-curvature="0"
           style="fill:#010101" /><path
           id="path979"
           d="m 85.43,221.34 c -12.11,0 -18.24,-6.9 -18.24,-20.49 0,-13.59 6.18,-20.64 18.38,-20.64 11.48,0 17.8,7.27 17.8,20.48 0,13.21 -6.37,20.65 -17.94,20.65 m -0.15,-36.9 c -10.41,0 -12,10.23 -12,16.34 0,6.11 1.55,16.33 12,16.33 7.6,0 12,-6 12,-16.33 0,-10.33 -4.37,-16.34 -12,-16.34"
           class="cls-20"
           inkscape:connector-curvature="0"
           style="fill:#010101" /><path
           id="path981"
           d="m 118.57,220.11 c -0.3,0 -0.73,-0.18 -0.73,-0.58 v -38.28 c 0,-0.4 0.43,-0.58 0.73,-0.58 h 11.12 c 3.52,0 11.71,1 11.71,9.84 0,3.39 -1.68,7.11 -5.41,7.79 l -0.06,0.95 1.22,0.38 c 4.11,1.31 6.47,4.69 6.47,9.25 0,8.3 -7.08,11.23 -13.14,11.23 z m 5,-3.76 h 5.88 c 5.29,0 8.09,-2.64 8.09,-7.61 0,-5.17 -2.77,-7.69 -8.45,-7.69 h -5.52 z m 0,-18.69 h 4.3 c 4.94,0 7.44,-2.22 7.44,-6.61 0,-4 -2.42,-6.61 -6.15,-6.61 h -5.59 z"
           class="cls-20"
           inkscape:connector-curvature="0"
           style="fill:#010101" /><path
           id="path983"
           d="m 173.6,221.34 c -12.1,0 -18.24,-6.9 -18.24,-20.49 0,-13.59 6.18,-20.64 18.38,-20.64 11.48,0 17.8,7.27 17.8,20.48 0,13.21 -6.37,20.65 -17.94,20.65 m -0.15,-36.9 c -10.41,0 -12,10.23 -12,16.34 0,6.11 1.56,16.33 12,16.33 7.61,0 12,-6 12,-16.33 0,-10.33 -4.36,-16.34 -12,-16.34"
           class="cls-20"
           inkscape:connector-curvature="0"
           style="fill:#010101" /><path
           id="path985"
           d="m 212.77,220.11 c -0.3,0 -0.73,-0.18 -0.73,-0.58 v -34.71 h -10.75 c -0.33,0 -0.8,-0.21 -0.8,-0.58 v -3 c 0,-0.57 0.77,-0.58 0.8,-0.58 h 27.19 c 0.3,0 0.8,0.07 0.8,0.58 v 3 c 0,0.37 -0.47,0.58 -0.8,0.58 h -10.75 v 34.71 c 0,0.4 -0.43,0.58 -0.73,0.58 z"
           class="cls-20"
           inkscape:connector-curvature="0"
           style="fill:#010101" /><path
           id="path987"
           d="m 241.82,220.11 c -0.3,0 -0.73,-0.18 -0.73,-0.58 v -38.28 c 0,-0.14 0,-0.58 0.73,-0.58 h 4.24 c 0.73,0 0.73,0.44 0.73,0.58 v 38.28 c 0,0.4 -0.43,0.58 -0.73,0.58 z"
           class="cls-20"
           inkscape:connector-curvature="0"
           style="fill:#010101" /><path
           id="path989"
           d="m 281.35,220.49 c -12.77,0 -20.1,-7.1 -20.1,-19.49 0,-12.63 7.95,-20.79 20.25,-20.79 2.92,0 7.1,0.64 9.46,1.85 l 0.34,0.2 c 0.71,0.38 1,0.52 1,1.37 v 2.67 a 0.5,0.5 0 0 1 -0.44,0.51 2.27,2.27 0 0 1 -1,-0.33 c -0.18,-0.09 -0.35,-0.18 -0.53,-0.25 a 16.67,16.67 0 0 0 -8,-1.79 c -9.37,0 -15,6.28 -15,16.79 0,9.47 5.33,15.12 14.26,15.12 a 18.12,18.12 0 0 0 8.62,-2.06 l 0.38,-0.21 a 3.87,3.87 0 0 1 1.19,-0.57 c 0.66,0.56 0.58,2.21 0.54,3 0,0.25 0,0.47 0,0.63 0,2.35 -7.81,3.34 -10.92,3.34"
           class="cls-20"
           inkscape:connector-curvature="0"
           style="fill:#010101" /><path
           id="path991"
           d="m 312.42,220.49 a 24.77,24.77 0 0 1 -8.7,-1.56 c -0.79,-0.33 -0.93,-0.41 -0.93,-0.93 v -3.52 c 0,0 0,-1 0.45,-1 a 2.29,2.29 0 0 1 1.16,0.55 15.3,15.3 0 0 0 8,2.29 c 3.46,0 7.16,-1.62 7.16,-6.16 0,-3.07 -1.69,-4.25 -3.66,-5.61 l -7.09,-5 c -3.73,-2.62 -5.25,-5.26 -5.25,-9.09 0,-9.56 9.13,-10.3 11.92,-10.3 a 22.08,22.08 0 0 1 8.18,1.55 c 0.72,0.36 0.87,0.45 0.87,1.17 v 3.37 c 0,0.27 -0.06,0.51 -0.52,0.51 a 1.8,1.8 0 0 1 -1,-0.35 l -0.37,-0.2 a 14,14 0 0 0 -6.91,-1.82 c -4.07,0 -6.5,2 -6.5,5.46 0,2.58 1.55,4 3.07,5.07 l 7.25,4.91 c 3.82,2.53 6,4.94 6,9.7 0,8 -6.78,10.91 -13.14,10.91"
           class="cls-20"
           inkscape:connector-curvature="0"
           style="fill:#010101" /></g></g></g></svg>